# xmcd
#
# Track frame offsets:
#	150
#	16657
#	31764
#	47019
#	64059
#	81854
#	98837
#	113987
#	131429
#	150697
#
# Disc length: 2196 seconds
# Revision: 0
# Processed by: cddbd v1.5.2PL0 Copyright (c) Steve Scherf et al.
# Submitted via: dBpowerAMP V12.0
#
DISCID=7108920a
DTITLE=Jaida Dreyer - I Am Jaida Dreyer
DYEAR=2013
DGENRE=Country
TTITLE0=One Of Those Guys
TTITLE1=Confessions
TTITLE2=If That'll Make You Love Me
TTITLE3=Put Your Boots Back On
TTITLE4=Cocaine
TTITLE5=Bad Habits
TTITLE6=If That Ain't Love
TTITLE7=Half Broke Horses
TTITLE8=Boy Who Cried Love
TTITLE9=South Of The Sun
EXTD=
EXTT0=
EXTT1=
EXTT2=
EXTT3=
EXTT4=
EXTT5=
EXTT6=
EXTT7=
EXTT8=
EXTT9=
PLAYORDER=
